# xmcd
#
# Track frame offsets:
#	150
#	19808
#	39466
#	57851
#	76909
#	96264
#	113823
#	129128
#	147730
#	162515
# Disc length: 2328 seconds
# Revision: 1
# Processed by: cddbd v1.5.2PL0 Copyright (c) Steve Scherf et al.
#
# Submitted via: libkcddb 0.31
#
DISCID=8109160a
DTITLE=อั้ม  นันทิยา - น้องใหม่ใน ม.รัก
DYEAR=2006
DGENRE=Country
TTITLE0=น้องใหม่ใน ม.รัก
TTITLE1=ไม่รักไม่งอน
TTITLE2=เรียกเพื่อนเดือนเดียว
TTITLE3=ยังจำคนทำเจ็บ
TTITLE4=สมุดหัวใจ
TTITLE5=สองสายที่ไม่ได้รับ
TTITLE6=ขอแม่แค่คบกัน
TTITLE7=นักร้องของพ่อ
TTITLE8=แม่สั่งไว้
TTITLE9=อกหักเหมือนกัน
EXTD=
EXTT0=
EXTT1=
EXTT2=
EXTT3=
EXTT4=
EXTT5=
EXTT6=
EXTT7=
EXTT8=
EXTT9=
PLAYORDER=
